<?xml version="1.0" encoding="UTF-8" standalone="no"?>
<!-- Created with Inkscape (http://www.inkscape.org/) -->

<svg
   xmlns:dc="http://purl.org/dc/elements/1.1/"
   xmlns:cc="http://creativecommons.org/ns#"
   xmlns:rdf="http://www.w3.org/1999/02/22-rdf-syntax-ns#"
   xmlns:svg="http://www.w3.org/2000/svg"
   xmlns="http://www.w3.org/2000/svg"
   xmlns:sodipodi="http://sodipodi.sourceforge.net/DTD/sodipodi-0.dtd"
   xmlns:inkscape="http://www.inkscape.org/namespaces/inkscape"
   width="27.368179mm"
   height="23.00662mm"
   viewBox="0 0 27.368179 23.006621"
   version="1.1"
   id="svg77"
   inkscape:version="0.92.4 (5da689c313, 2019-01-14)"
   sodipodi:docname="Topbrains.svg">
  <defs
     id="defs71" />
  <sodipodi:namedview
     id="base"
     pagecolor="#ffffff"
     bordercolor="#666666"
     borderopacity="1.0"
     inkscape:pageopacity="0.0"
     inkscape:pageshadow="2"
     inkscape:zoom="1.4"
     inkscape:cx="-216.52773"
     inkscape:cy="-157.34985"
     inkscape:document-units="mm"
     inkscape:current-layer="layer2"
     showgrid="false"
     inkscape:window-width="1920"
     inkscape:window-height="968"
     inkscape:window-x="0"
     inkscape:window-y="27"
     inkscape:window-maximized="1" />
  <metadata
     id="metadata74">
    <rdf:RDF>
      <cc:Work
         rdf:about="">
        <dc:format>image/svg+xml</dc:format>
        <dc:type
           rdf:resource="http://purl.org/dc/dcmitype/StillImage" />
        <dc:title />
      </cc:Work>
    </rdf:RDF>
  </metadata>
  <g
     inkscape:groupmode="layer"
     id="layer2"
     inkscape:label="Layer 2"
     style="display:none">
    <rect
       style="fill:#00ccff;stroke-width:0.24536447"
       id="rect4541"
       width="28.348215"
       height="24.379463"
       x="-0.56696427"
       y="-0.47514644"
       ry="0" />
  </g>
  <g
     inkscape:label="Layer 1"
     inkscape:groupmode="layer"
     id="layer1"
     transform="translate(-0.37793308,-0.52626367)"
     style="display:inline">
    <g
       style="image-rendering:auto"
       id="g917"
       transform="matrix(0.08821331,0,0,0.08968678,-1.4783396,0.52643105)">
      <path
         d="m 84.141,229.641 c -12.836,-4.711 -23.453,-8.692 -23.594,-8.84 -0.68,-0.731 2.683,-29.067 3.547,-29.895 0.531,-0.504 9.015,-6.199 18.855,-12.648 l 17.895,-11.727 20.894,20.938 20.891,20.941 -16.219,14.965 c -9.121,8.418 -16.808,14.934 -17.57,14.898 -0.746,-0.031 -11.86,-3.918 -24.699,-8.632 z"
         style="fill:#ddff55;fill-opacity:1;fill-rule:nonzero;stroke:none"
         id="path827"
         inkscape:connector-curvature="0" />
      <path
         d="m 136.516,232.609 8.089,-23.914 20.735,-9.84 c 11.402,-5.41 20.84,-9.734 20.969,-9.605 0.125,0.129 -9.516,15.316 -21.426,33.75 l -21.66,33.52 h -14.797 z"
         style="fill:#ffd42a;fill-opacity:1;fill-rule:nonzero;stroke:none"
         id="path829"
         inkscape:connector-curvature="0" />
      <path
         d="m 123.043,186.469 c -11.438,-11.442 -20.641,-20.946 -20.449,-21.121 0.187,-0.172 2.73,-1.836 5.648,-3.703 2.914,-1.864 13.363,-8.696 23.215,-15.176 l 17.914,-11.781 18.727,25.621 c 10.3,14.093 18.715,25.871 18.695,26.171 -0.031,0.418 -41.949,20.793 -42.781,20.793 -0.094,0 -9.532,-9.363 -20.969,-20.804 z"
         style="fill:#88aa00;fill-opacity:1;fill-rule:nonzero;stroke:none"
         id="path831"
         inkscape:connector-curvature="0" />
      <path
         d="m 169.609,159.84 c -10,-13.66 -18.261,-25.195 -18.359,-25.633 -0.16,-0.742 43.801,-30 44.379,-29.531 0.379,0.308 -6.641,75.316 -7.289,77.851 -0.516,2.008 -1.707,0.563 -18.731,-22.687 z"
         style="fill:#2affd5;fill-opacity:1;fill-rule:nonzero;stroke:none"
         id="path833"
         inkscape:connector-curvature="0" />
      <path
         d="m 129.074,255.891 c 0,-0.887 15.016,-44.981 15.762,-46.286 0.613,-1.07 39.656,-19.804 40.223,-19.3 0.16,0.144 -3.371,5.984 -7.856,12.972 -4.48,6.989 -13.988,21.813 -21.129,32.938 l -12.984,20.23 -7.008,0.035 c -3.852,0.024 -7.008,-0.242 -7.008,-0.589 z"
         style="fill:#00ff66;fill-opacity:1;fill-rule:nonzero;stroke:none"
         id="path835"
         inkscape:connector-curvature="0" />
      <path
         d="m 84.84,148.273 -15.824,-15.847 2.187,-22.188 2.188,-22.191 17.047,-3.621 c 9.375,-1.992 17.597,-3.633 18.269,-3.649 0.746,-0.015 8.715,10.227 20.504,26.348 l 19.281,26.375 -23.07,15.105 c -12.684,8.309 -23.445,15.2 -23.91,15.309 -0.465,0.113 -7.969,-6.926 -16.672,-15.641 z"
         style="fill:#00ff66;fill-opacity:1;fill-rule:nonzero;stroke:none"
         id="path837"
         inkscape:connector-curvature="0" />
      <path
         d="M 108.375,76.016 C 98.313,62.539 79.023,35.852 79.211,35.664 79.344,35.535 107.836,27.441 142.523,17.684 191.074,4.023 205.594,0.199 205.594,1.07 c 0,2.637 -5.438,58.098 -5.723,58.387 -0.348,0.348 -87.297,18.961 -88.75,19 -0.5,0.012 -1.734,-1.086 -2.746,-2.441 z"
         style="fill:#00ff66;fill-opacity:1;fill-rule:nonzero;stroke:none"
         id="path839"
         inkscape:connector-curvature="0" />
      <path
         d="m 211.465,73.938 c -4.477,-6.629 -8.145,-12.555 -8.145,-13.165 0,-0.609 -0.375,-1.234 -0.84,-1.386 -0.593,-0.199 -0.019,-8.93 1.958,-29.801 1.535,-16.234 2.851,-29.547 2.921,-29.586 0.563,-0.297 89.895,34.953 89.735,35.41 -0.25,0.715 -76.18,50.66 -76.946,50.613 -0.296,-0.019 -4.203,-5.457 -8.683,-12.085 z"
         style="fill:#00ff66;fill-opacity:1;fill-rule:nonzero;stroke:none"
         id="path841"
         inkscape:connector-curvature="0" />
      <path
         d="m 296.887,114.488 c 17.918,-17.66 32.679,-31.824 32.808,-31.476 0.239,0.66 -16.23,54.082 -17.289,56.086 -0.457,0.859 -6.277,1.941 -23.593,4.379 -12.645,1.777 -23.329,3.207 -23.747,3.175 -0.414,-0.035 13.903,-14.507 31.821,-32.164 z"
         style="fill:#00ff66;fill-opacity:1;fill-rule:nonzero;stroke:none"
         id="path843"
         inkscape:connector-curvature="0" />
      <path
         d="m 41.082,176.531 -20.039,-14.097 5.137,-31.18 c 2.824,-17.152 5.226,-31.617 5.34,-32.152 0.109,-0.536 8.273,6.964 18.136,16.668 l 17.938,17.636 -2.852,28.227 c -1.566,15.523 -3.023,28.398 -3.234,28.609 -0.215,0.211 -9.403,-5.957 -20.426,-13.711 z"
         style="fill:#00ff66;fill-opacity:1;fill-rule:nonzero;stroke:none"
         id="path845"
         inkscape:connector-curvature="0" />
      <path
         d="M 53.004,66.168 C 67.898,44.66 73.551,37.059 74.938,36.688 c 1.39,-0.375 1.863,-0.208 1.863,0.667 0,2.2 -4.703,49.079 -4.953,49.34 -0.18,0.196 -37.852,8.403 -38.758,8.446 -0.082,0.004 8.879,-13.036 19.914,-28.973 z"
         style="fill:#00ff66;fill-opacity:1;fill-rule:nonzero;stroke:none"
         id="path847"
         inkscape:connector-curvature="0" />
      <path
         d="m 98.391,234.504 c -4.582,-1.645 -14.895,-5.418 -22.918,-8.379 l -14.582,-5.383 0.015,-3.133 c 0.016,-3.996 2.75,-25.203 3.375,-26.218 0.582,-0.938 35.828,-24.27 36.664,-24.27 0.328,0 9.696,9.348 20.813,20.774 l 20.215,20.773 -10.028,9.273 c -14.742,13.645 -21.996,19.641 -23.703,19.598 -0.836,-0.019 -5.265,-1.387 -9.851,-3.035 z"
         style="fill:#00ff66;fill-opacity:1;fill-rule:nonzero;stroke:none"
         id="path849"
         inkscape:connector-curvature="0" />
      <path
         d="m 183.867,178.492 c -5.851,-7.5 -32.019,-43.519 -32.043,-44.101 -0.051,-1.289 42.168,-29.125 42.965,-28.332 0.719,0.722 -6.098,75.945 -6.961,76.808 -0.168,0.168 -1.949,-1.801 -3.961,-4.375 z"
         style="fill:#66ff00;fill-opacity:1;fill-rule:nonzero;stroke:none"
         id="path851"
         inkscape:connector-curvature="0" />
      <path
         d="m 123.422,186.09 c -11.227,-11.235 -20.262,-20.574 -20.07,-20.75 0.359,-0.336 43.605,-28.61 45.187,-29.543 1.016,-0.598 37.598,49.16 37.145,50.519 -0.27,0.809 -39.633,20.141 -41.082,20.18 -0.418,0.012 -9.95,-9.172 -21.18,-20.406 z"
         style="fill:#afe9c6;fill-opacity:1;fill-rule:nonzero;stroke:none"
         id="path853"
         inkscape:connector-curvature="0" />
      <path
         d="m 211.355,190.156 c -11.625,-1.82 -21.269,-3.441 -21.433,-3.605 -0.164,-0.164 1.422,-18.379 3.519,-40.481 2.102,-22.101 3.825,-40.808 3.825,-41.574 0.007,-1.586 20.863,-15.496 22.367,-14.918 0.488,0.188 12.344,17.512 26.347,38.5 18.575,27.84 25.211,38.352 24.543,38.875 -2.105,1.656 -37.738,26.676 -37.878,26.598 -0.086,-0.043 -9.665,-1.574 -21.29,-3.395 z"
         style="fill:#afe9c6;fill-opacity:1;fill-rule:nonzero;stroke:none"
         id="path855"
         inkscape:connector-curvature="0" />
      <path
         d="M 241.273,118.422 C 230.684,102.496 222.145,89.125 222.289,88.707 222.438,88.289 239.922,76.262 261.148,61.98 l 38.594,-25.972 1.203,1.726 c 0.66,0.95 7.758,10.489 15.774,21.196 l 14.574,19.468 -34.875,34.325 c -19.18,18.875 -35.105,34.394 -35.387,34.488 -0.281,0.094 -9.172,-12.863 -19.758,-28.789 z"
         style="fill:#afe9c6;fill-opacity:1;fill-rule:nonzero;stroke:none"
         id="path857"
         inkscape:connector-curvature="0" />
      <path
         d="M 146.602,128.293 C 134.27,111.824 111.715,80.438 112,80.148 c 0.34,-0.335 87.863,-19.078 87.961,-18.832 0.027,0.063 -0.828,9.293 -1.895,20.508 l -1.941,20.391 -22.934,15.027 c -12.613,8.266 -23.086,15.028 -23.273,15.028 -0.184,0 -1.68,-1.79 -3.316,-3.977 z"
         style="fill:#afe9c6;fill-opacity:1;fill-rule:nonzero;stroke:none"
         id="path859"
         inkscape:connector-curvature="0" />
      <path
         d="m 63.563,187.008 c 0.199,-1.145 1.394,-12.992 2.656,-26.328 1.261,-13.332 2.371,-24.676 2.461,-25.207 0.09,-0.528 7.113,5.996 15.601,14.5 l 15.438,15.457 -17.946,11.832 c -9.875,6.508 -18.089,11.828 -18.261,11.828 -0.172,0 -0.149,-0.938 0.051,-2.082 z"
         style="fill:#afe9c6;fill-opacity:1;fill-rule:nonzero;stroke:none"
         id="path861"
         inkscape:connector-curvature="0" />
      <path
         d="M 49.875,114.059 C 40.316,104.492 32.66,96.652 32.863,96.641 33.07,96.629 41.762,94.809 52.18,92.594 69.633,88.883 71.137,88.672 71.355,89.93 c 0.235,1.351 -3.488,40.918 -3.886,41.316 -0.114,0.117 -8.031,-7.621 -17.594,-17.187 z"
         style="fill:#afe9c6;fill-opacity:1;fill-rule:nonzero;stroke:none"
         id="path863"
         inkscape:connector-curvature="0" />
      <path
         d="m 73.777,84.73 c 0.016,-2.792 4.481,-45.839 4.786,-46.148 0.175,-0.176 6.992,8.809 15.14,19.965 8.152,11.156 14.742,20.359 14.645,20.457 -0.309,0.309 -32.301,7.051 -33.461,7.051 -0.614,0 -1.114,-0.598 -1.11,-1.325 z"
         style="fill:#afe9c6;fill-opacity:1;fill-rule:nonzero;stroke:none"
         id="path865"
         inkscape:connector-curvature="0" />
      <path
         d="m 198.367,94.199 c 0.289,-3.437 1.098,-12.179 1.793,-19.429 l 1.27,-13.176 7.254,10.906 c 3.988,5.996 7.851,11.824 8.582,12.945 l 1.328,2.043 -9.949,6.481 c -5.469,3.566 -10.141,6.48 -10.375,6.48 -0.239,0 -0.192,-2.812 0.097,-6.25 z"
         style="fill:#afe9c6;fill-opacity:1;fill-rule:nonzero;stroke:none"
         id="path867"
         inkscape:connector-curvature="0" />
    </g>
  </g>
</svg>
